<svg width="165" height="142" viewBox="0 0 165 142" fill="none" xmlns="http://www.w3.org/2000/svg">
<path d="M42.3288 0V3.5C42.3311 3.5 42.3335 3.5 42.3359 3.5C56.3836 3.50183 65.6295 8.92973 71.3863 14.2748C74.2878 16.9688 76.3201 19.661 77.6189 21.6645C78.2671 22.6643 78.7285 23.4864 79.0209 24.0424C79.1669 24.3202 79.2704 24.5308 79.3335 24.6632C79.365 24.7293 79.3865 24.7758 79.398 24.8013L79.4048 24.8162L79.406 24.8188L79.4073 24.822L79.4076 24.8225L79.4081 24.8235L82.3078 31.5065L85.7104 25.0521C92.4777 12.2151 105.871 3.5 121.267 3.5C143.461 3.5 161.495 21.624 161.5 44.0351L161.5 44.0355C161.5 44.0366 161.5 44.0377 161.5 44.0388V44.0411C161.5 44.042 161.5 44.0429 161.5 44.0437L161.5 44.0489C161.5 44.0562 161.5 44.0661 161.499 44.0787C161.499 44.0979 161.498 44.1232 161.498 44.1546C161.495 44.2581 161.489 44.4272 161.476 44.6587C161.451 45.1218 161.398 45.8347 161.29 46.7735C161.074 48.6513 160.636 51.4313 159.748 54.9226C157.972 61.9018 154.395 71.7339 147.18 82.8983C143.705 88.276 137.889 94.4896 130.929 100.87C124.01 107.215 116.128 113.574 108.668 119.248C101.214 124.918 94.2172 129.877 89.0821 133.419C86.5156 135.19 84.4169 136.604 82.9621 137.575C82.8721 137.635 82.7847 137.693 82.6997 137.75C82.6761 137.733 82.6523 137.716 82.6284 137.698C81.3272 136.755 79.444 135.377 77.1238 133.648C72.4822 130.189 66.0986 125.328 59.1316 119.719C45.1182 108.438 29.026 94.3554 19.8617 82.6413C10.7076 70.9402 6.66166 61.1771 4.88163 54.476C3.99007 51.1196 3.66207 48.513 3.55131 46.7941C3.49589 45.9342 3.49477 45.2952 3.50496 44.8944C3.51006 44.694 3.51798 44.5531 3.52337 44.4739C3.52591 44.4365 3.52789 44.4129 3.52874 44.4032C3.52879 44.4026 3.52884 44.402 3.52888 44.4016L3.52895 44.4006L3.52917 44.3983L3.53022 44.3882C5.58971 23.5607 15.451 13.5456 24.5058 8.57337C29.1187 6.04034 33.6263 4.76512 36.9878 4.12672C38.6634 3.80849 40.0385 3.6515 40.9776 3.57424C41.4467 3.53565 41.8054 3.51707 42.0367 3.50815C42.1522 3.5037 42.2358 3.50166 42.2853 3.50073L42.3335 3.50002L42.335 3.49999L42.3323 3.5C42.3306 3.5 42.3288 3.5 42.3288 0ZM42.3288 0C65.0097 0 76.3744 13.277 80.6055 19.8375L42.3288 0Z" stroke="black" stroke-width="7"/>
</svg>
