<svg width="213" height="192" viewBox="0 0 213 192" fill="none" xmlns="http://www.w3.org/2000/svg">
<path fill-rule="evenodd" clip-rule="evenodd" d="M205.338 136.268C204.764 136.461 204.178 136.64 203.582 136.803L85.5889 169.088C62.3829 175.438 41.5184 153.259 49.2721 130.483L84.4295 27.2151C84.7915 26.1517 85.2043 25.1254 85.6639 24.1374C77.7673 27.1386 71.075 33.4492 67.9929 42.4106L32.7997 144.741C24.9613 167.532 45.8394 189.794 69.0863 183.434L186.669 151.261C195.359 148.883 201.728 143.231 205.338 136.268ZM104.944 39.0847C107.227 32.3973 115.538 30.1233 120.908 34.7167L199.199 101.686C205.297 106.901 203.077 116.813 195.338 118.93L185.712 121.564C185.261 119.588 184.19 117.704 182.433 116.211L104.388 49.8716C103.583 49.1876 102.713 48.6571 101.807 48.272L104.944 39.0847Z" fill="black"/>
</svg>
